<svg xmlns="http://www.w3.org/2000/svg" width="111.813" height="18.75"><path d="M4.917 14.701V11.45h3.3a1.654 1.654 0 0 1 1.624 1.625A1.621 1.621 0 0 1 8.217 14.7h-3.3zm0-7.373v-3.25h2.377a1.625 1.625 0 0 1 0 3.249H4.919zM9.241 18.75a5.47 5.47 0 0 0 3.374-9.8 5.491 5.491 0 0 0 1.2-3.374A5.656 5.656 0 0 0 8.267.002H-.006V18.75h9.248zm8.077-9.348a9.361 9.361 0 1 0 9.348-9.4 9.333 9.333 0 0 0-9.348 9.4zm13.822-.025a4.462 4.462 0 1 1-4.474-4.474 4.485 4.485 0 0 1 4.474 4.474zM43.894.004h-4.949V11.35a7.4 7.4 0 0 0 14.8 0V.004h-4.951v11.273a2.45 2.45 0 0 1-4.9 0V.004zm29.4 18.746V.004H68.37V8.85L59.494.004h-2V18.75h4.924V9.877l8.847 8.873h2.029zm18.05-16.021a9.271 9.271 0 0 0-6.6-2.724 9.373 9.373 0 1 0 6.65 15.97l-3.5-3.449a4.422 4.422 0 1 1-3.149-7.548 4.375 4.375 0 0 1 3.149 1.225zM111.819.005h-5.673l-3.63 6.245-3.6-6.249h-5.672l6.85 11.849v6.9h4.874v-6.9z" fill="#fff" fill-rule="evenodd"/></svg>