<svg xmlns="http://www.w3.org/2000/svg" width="111.813" height="18.75"><defs><filter id="a" x="626.906" y="4518.25" width="111.813" height="18.75" filterUnits="userSpaceOnUse"><feFlood result="flood" flood-color="#323a45"/><feComposite result="composite" operator="in" in2="SourceGraphic"/><feBlend result="blend" in2="SourceGraphic"/></filter></defs><path d="M631.823 4532.95v-3.25h3.3a1.659 1.659 0 0 1 1.625 1.63 1.618 1.618 0 0 1-1.625 1.62h-3.3zm0-7.37v-3.25h2.377a1.625 1.625 0 0 1 0 3.25h-2.375zm4.324 11.42a5.471 5.471 0 0 0 3.374-9.8 5.478 5.478 0 0 0 1.2-3.37 5.661 5.661 0 0 0-5.549-5.58H626.9V4537h9.248zm8.077-9.35a9.361 9.361 0 1 0 9.348-9.4 9.332 9.332 0 0 0-9.348 9.4zm13.822-.02a4.462 4.462 0 1 1-4.474-4.48 4.482 4.482 0 0 1 4.474 4.48zm12.752-9.38h-4.949v11.35a7.4 7.4 0 1 0 14.8 0v-11.35H675.7v11.28a2.45 2.45 0 1 1-4.9 0v-11.28zM700.2 4537v-18.75h-4.923v8.85l-8.873-8.85h-2V4537h4.924v-8.87l8.848 8.87h2.024zm18.05-16.02a9.275 9.275 0 0 0-6.6-2.73 9.375 9.375 0 1 0 6.648 15.98l-3.5-3.45a4.422 4.422 0 1 1-3.149-7.55 4.392 4.392 0 0 1 3.149 1.22zm20.475-2.73h-5.674l-3.624 6.25-3.6-6.25h-5.677l6.85 11.85v6.9h4.874v-6.9z" transform="translate(-626.906 -4518.25)" fill="#fff" fill-rule="evenodd" filter="url(#a)"/></svg>